<svg width="320" height="74" viewBox="0 0 320 74" fill="none" xmlns="http://www.w3.org/2000/svg">
  <rect x="1.5" y="1.5" width="317" height="71" rx="14.5" fill="white" stroke="#CC1229" stroke-width="3"/>
  <path d="M24 60V14H34V52H63V60H24Z" fill="#CC1229"/>
  <path d="M66 60L83 14H94L111 60H100L97 50H80L77 60H66ZM82 42H95L89 24L82 42Z" fill="#CC1229"/>
  <path d="M118 60V14H128V35L146 14H158L140 35L160 60H148L133 42L128 47V60H118Z" fill="#CC1229"/>
  <path d="M162 37C162 23 172 13 186 13C199 13 210 23 210 37C210 51 199 61 186 61C172 61 162 51 162 37ZM172 37C172 46 178 52 186 52C193 52 200 46 200 37C200 28 193 22 186 22C178 22 172 28 172 37Z" fill="#CC1229"/>
  <path d="M215 60V14H225V60H215Z" fill="#CC1229"/>
  <path d="M232 60V14H242V52H271V60H232Z" fill="#CC1229"/>
  <path d="M276 60V14H286V60H276Z" fill="#CC1229"/>
  <path d="M301 14C301 20.5 296 26 289.5 26C283 26 278 20.5 278 14C278 7.5 283 2 289.5 2C296 2 301 7.5 301 14Z" fill="#CC1229"/>
</svg>
